<?xml version="1.0" encoding="utf-8"?>
<!-- Generator: Adobe Illustrator 20.0.0, SVG Export Plug-In . SVG Version: 6.00 Build 0)  -->
<svg version="1.1" id="Layer_2" xmlns="http://www.w3.org/2000/svg" xmlns:xlink="http://www.w3.org/1999/xlink" x="0px" y="0px"
	 viewBox="0 0 160.6 201" style="enable-background:new 0 0 160.6 201;" xml:space="preserve">
<style type="text/css">
	.st0{fill:#D52D25;}
</style>
<g>
	<path class="st0" d="M141.6,73.4c-11-11.5-26-18.4-44.7-20.6c15.2-3.7,31.8-15.1,40.3-52.8C88.1,4.7,80.5,28.7,77.6,46
		c-1.4-11.1-6.8-24.9-35.9-30.4c3.4,25.9,13.9,34,23.8,37c-18.8,2-34.1,8.7-45.6,20.2c-13,12.7-19.7,28.9-19.8,48
		c0.1,18.6,6.6,34.5,19.4,47.1c11.8,12,27.8,19.1,47.5,20.9V201h26.9v-12.2c20.3-1.8,36.5-8.9,48.1-21.1
		c12.3-12.9,18.7-28.7,18.8-47C160.5,102.4,154.2,86.5,141.6,73.4 M66.9,163.3c-10.9-1.3-20-5.5-27.2-12.3
		c-8.5-7.7-12.7-17.5-12.7-30.2c0-12.9,4.2-22.9,12.8-30.7C46.9,83.4,56,79.3,66.9,78V163.3z M121.6,150.7
		c-7.3,7.2-16.4,11.3-27.9,12.6V78c11.4,1.2,20.8,5.3,27.9,12.2c8,7.9,12,17.9,12.1,30.5C133.6,133.1,129.7,142.9,121.6,150.7"/>
</g>
</svg>
